#N canvas 1099 342 697 519 12;
#X obj 329 166 adc~;
#X obj 299 239 sigmund~ -stabletime 40 notes env;
#X floatatom 299 263 5 0 0 0 - - - 0;
#X floatatom 536 293 5 0 0 0 - - - 0;
#X obj 299 286 expr int (0.5 + $f1);
#X floatatom 260 368 5 0 0 0 - - - 0;
#X obj 395 369 poly 1 1;
#X obj 426 407 noteout 1;
#X obj 178 143 osc~;
#X floatatom 175 60 5 0 0 0 - - - 0;
#X obj 176 98 mtof;
#X text 195 280 round to nearest int, f 12;
#X text 486 166 pitch tracking \, outputs midi note and amplitude, f 16;
#X text 60 56 connect this up to sigmund instead of adc~ for testing without instrument, f 12;
#X text 509 415 midi out;
#X text 313 138 mic input;
#X connect 0 0 1 0;
#X connect 0 1 1 0;
#X connect 1 0 2 0;
#X connect 1 1 3 0;
#X connect 2 0 4 0;
#X connect 3 0 6 1;
#X connect 4 0 5 0;
#X connect 4 0 6 0;
#X connect 6 1 7 0;
#X connect 6 2 7 1;
#X connect 9 0 10 0;
#X connect 10 0 8 0;
#X connect 10 0 8 1;
